<?xml version="1.0" encoding="UTF-8" standalone="no"?>
<svg
   width="64"
   height="64"
   version="1.1"
   viewBox="0 0 16.933 16.933"
   id="svg7"
   sodipodi:docname="helium.svg"
   inkscape:version="1.4.3 (0d15f75042, 2025-12-25)"
   xmlns:inkscape="http://www.inkscape.org/namespaces/inkscape"
   xmlns:sodipodi="http://sodipodi.sourceforge.net/DTD/sodipodi-0.dtd"
   xmlns="http://www.w3.org/2000/svg"
   xmlns:svg="http://www.w3.org/2000/svg"
   xmlns:rdf="http://www.w3.org/1999/02/22-rdf-syntax-ns#"
   xmlns:cc="http://creativecommons.org/ns#"
   xmlns:dc="http://purl.org/dc/elements/1.1/">
  <sodipodi:namedview
     id="namedview7"
     pagecolor="#9c4444"
     bordercolor="#000000"
     borderopacity="0.25"
     inkscape:showpageshadow="2"
     inkscape:pageopacity="0.0"
     inkscape:pagecheckerboard="0"
     inkscape:deskcolor="#d1d1d1"
     inkscape:zoom="6.15625"
     inkscape:cx="15.837563"
     inkscape:cy="29.563452"
     inkscape:window-width="2560"
     inkscape:window-height="1388"
     inkscape:window-x="0"
     inkscape:window-y="0"
     inkscape:window-maximized="1"
     inkscape:current-layer="svg7"
     showgrid="false" />
  <defs
     id="defs2">
    <style
       id="current-color-scheme"
       type="text/css">.ColorScheme-Text {color:#d8dee9} .ColorScheme-Highlight {color:#3b4252}</style>
  </defs>
  <metadata
     id="metadata2">
    <rdf:RDF>
      <cc:Work
         rdf:about="">
        <dc:format>image/svg+xml</dc:format>
        <dc:type
           rdf:resource="http://purl.org/dc/dcmitype/StillImage" />
      </cc:Work>
    </rdf:RDF>
  </metadata>
  <path
     id="path5"
     style="fill:currentColor;fill-opacity:1;stroke-width:0.0547759"
     d="m 6.1072831,1.4551795 c -1.6175336,0 -2.2035848,0.168141 -2.7957127,0.484746 a 3.2975116,3.2975116 0 0 0 -1.3716451,1.371645 c -0.316605,0.59158 -0.4847457,1.178179 -0.4847457,2.795712 v 4.7184345 c 0,1.617534 0.1681408,2.203585 0.4847457,2.795713 a 3.2975116,3.2975116 0 0 0 1.3716451,1.371645 c 0.5915802,0.316605 1.1781791,0.484746 2.7957127,0.484746 h 4.7184339 c 1.618081,0 2.204132,-0.168141 2.795713,-0.484746 a 3.2975116,3.2975116 0 0 0 1.371644,-1.371645 c 0.316605,-0.59158 0.484746,-1.178179 0.484746,-2.795713 V 6.1072825 c 0,-1.618081 -0.168141,-2.204132 -0.484746,-2.795712 A 3.2975116,3.2975116 0 0 0 13.62143,1.9399255 c -0.591581,-0.316605 -1.17818,-0.484746 -2.795713,-0.484746 z m 2.3318288,2.301017 a 0.30154156,0.30154156 0 0 1 0.3221297,0.30084 v 5.38e-4 3.677156 l 3.4168634,-3.427349 c 0.11503,-0.115029 0.301246,-0.115029 0.416276,0 h 0.0012 a 0.29579006,0.29579006 0 0 1 0,0.417881 l -3.4227501,3.432803 h 3.6746951 a 0.30126768,0.30126768 0 0 1 0.301803,0.301268 l 5.38e-4,6.42e-4 a 0.30126768,0.30126768 0 0 1 -0.301268,0.301267 H 9.1853408 l 3.4095882,3.4196445 a 0.29579006,0.29579006 0 0 1 0,0.417881 0.2941468,0.2941468 0 0 1 -0.415741,5.38e-4 L 12.17865,12.598768 8.7612425,9.1714195 v 3.6629275 a 0.30158866,0.30158866 0 0 1 -0.6031773,0 V 9.1756995 L 4.7450535,12.598768 a 0.2941468,0.2941468 0 0 1 -0.4162757,0 0.29579006,0.29579006 0 0 1 0,-0.417881 L 7.7379371,8.7612415 H 4.0981186 a 0.30158866,0.30158866 0 0 1 0,-0.603177 H 7.7508824 L 4.3281348,4.7252605 a 0.29579006,0.29579006 0 0 1 0,-0.417881 c 0.057515,-0.05751 0.1328744,-0.08634 0.2081913,-0.08634 0.075317,0 0.1506766,0.02882 0.2081914,0.08634 l 3.4135467,3.423604 v -3.673947 a 0.30154156,0.30154156 0 0 1 0.2810477,-0.30084 z"
     class="ColorScheme-Text" />
</svg>
